<?xml version="1.0" standalone="no"?>
<!DOCTYPE svg PUBLIC "-//W3C//DTD SVG 20010904//EN"
 "http://www.w3.org/TR/2001/REC-SVG-20010904/DTD/svg10.dtd">
<svg version="1.0" xmlns="http://www.w3.org/2000/svg"
 width="202.000000pt" height="202.000000pt" viewBox="0 0 202.000000 202.000000"
 preserveAspectRatio="xMidYMid meet">
<metadata>
Created by potrace 1.14, written by Peter Selinger 2001-2017
</metadata>
<g transform="translate(0.000000,202.000000) scale(0.100000,-0.100000)"
fill="#000000" stroke="none">
<path d="M959 1986 c-2 -3 -16 -7 -29 -10 -73 -14 -91 -19 -96 -27 -3 -5 -14
-9 -25 -9 -10 0 -19 -4 -19 -10 0 -5 -5 -10 -11 -10 -19 0 -103 -62 -149 -110
-25 -26 -60 -75 -78 -109 -18 -33 -36 -61 -40 -62 -4 0 -31 -3 -59 -5 -247
-20 -450 -250 -442 -498 8 -221 169 -417 384 -467 55 -12 1172 -17 1258 -5 96
14 176 54 244 125 71 74 111 173 111 280 0 198 -150 375 -342 405 -51 8 -56
12 -56 44 0 75 -68 215 -143 294 -103 110 -237 167 -403 174 -55 2 -103 2
-105 0z m212 -91 c79 -21 130 -47 195 -99 91 -72 158 -197 170 -313 3 -32 12
-63 20 -69 8 -6 42 -14 76 -18 115 -12 215 -81 265 -185 37 -75 39 -199 5
-276 -40 -88 -126 -160 -222 -185 -33 -9 -208 -12 -636 -12 -527 0 -598 2
-650 17 -145 42 -252 149 -289 290 -15 60 -14 188 3 221 5 10 18 39 30 65 27
61 106 145 161 173 82 41 131 53 228 55 43 1 43 1 78 72 41 83 87 140 152 187
114 81 279 112 414 77z"/>
<path d="M437 511 c-46 -55 -117 -169 -133 -212 -28 -77 -14 -154 37 -208 30
-31 96 -61 140 -61 54 0 132 44 164 92 56 84 31 185 -87 345 -60 82 -82 90
-121 44z m88 -136 c51 -78 78 -142 71 -171 -11 -44 -57 -85 -101 -90 -45 -5
-79 9 -107 46 -39 53 -31 88 46 208 22 34 43 62 47 62 4 0 24 -25 44 -55z"/>
<path d="M953 518 c-36 -39 -115 -161 -135 -207 -47 -110 -8 -215 96 -262 57
-26 104 -24 166 9 45 22 59 36 81 80 34 66 31 112 -11 197 -40 82 -130 199
-155 203 -12 2 -30 -7 -42 -20z m80 -140 c48 -73 70 -119 72 -148 4 -55 -50
-114 -110 -118 -42 -3 -93 31 -111 75 -14 32 -14 40 0 77 18 48 94 166 106
166 4 0 24 -24 43 -52z"/>
<path d="M1463 518 c-36 -39 -131 -188 -143 -222 -34 -105 2 -196 98 -243 43
-21 61 -24 98 -19 149 20 219 160 149 297 -47 90 -140 209 -164 209 -10 0 -27
-10 -38 -22z m82 -143 c60 -91 76 -135 64 -178 -33 -120 -201 -107 -223 18 -4
22 4 46 30 94 37 67 74 119 86 120 3 1 23 -24 43 -54z"/>
</g>
</svg>
